<svg width="512" height="512" fill="none" xmlns="http://www.w3.org/2000/svg"><path fill="#DA291C" d="M0 0h512v512H0z"/><g clip-path="url(#prefix__clip0_51_18)" fill="#fff"><path d="M58 223.134c2.275-.338 3.453-.148 5.35 1.232 3.249 2.367 5.957 5.947 8.728 8.859 9.572 10.063 20.491 16.956 35.027 14.804 4.835-.716 9.255-3.038 13.304-5.682 7.676-5.013 14.073-11.739 20.556-18.153 18.609-18.41 35.478-32.694 63.217-31.406 11.403.53 22.878 4.218 32.123 10.983 5.115 3.743 9.505 8.262 13.412 13.235 1.499 1.908 2.81 4.087 4.434 5.874.525.578 1.271 1.388 2.102 1.386 2.403-1.528 4.255-5.182 6.001-7.419a110.391 110.391 0 014.718-5.574c14.8-16.232 37.173-21.582 58.261-16.887 10.879 2.423 20.869 8.019 29.467 15.01 6.343 5.156 12.191 10.973 17.995 16.716 10.701 10.589 22.433 23.145 38.8 22.338 5.962-.294 11.361-2.198 16.395-5.378 4.561-2.882 8.541-6.327 12.249-10.237 1.655-1.745 3.257-3.877 5.11-5.39.058 0 .116.003.174 0 2.715-.134 4.855-4.395 7.398-3.777.289.414.283.461.286.97.012-.12-.149-.19-.226-.284l-.713.266c.511.402.917.621 1.031 1.317.489 2.962-.627 6.097-.219 9.111-.14.546-.274 1.093-.402 1.642a111.664 111.664 0 01-3.452 11.9 114.664 114.664 0 01-3.018 7.691 113.467 113.467 0 01-3.574 7.449 113.55 113.55 0 01-6.36 10.633 112.042 112.042 0 01-4.873 6.673 111.1 111.1 0 01-5.348 6.298 113.263 113.263 0 01-5.795 5.889c-4.627 4.366-9.656 8.518-15.113 11.826-13.753 8.335-28.623 12.792-44.618 13.929-28.012 1.991-52.423-5.821-75.405-21.742-6.185-4.285-11.881-9.057-17.527-14.021-2.671-2.347-5.232-4.882-8.019-7.086-.795-.629-2.521-2.035-3.556-2.071-.853-.03-2.171 1.019-2.821 1.525-2.97 2.314-5.736 5.007-8.567 7.498-5.301 4.665-10.606 9.138-16.343 13.263-25.008 17.98-54.98 26.686-85.639 21.617-35.603-5.887-61.91-28.519-76.436-61.202a121.472 121.472 0 01-4.116-10.5c-1.081-3.214-2.063-9.75-3.877-12.179-.039-.052-.08-.1-.121-.151v-10.795z"/><path d="M445.249 227.445c1.026-1.26 2.3-2.758 3.664-3.639 1.817-1.172 3.121-.993 5.087-.496v.173c-.868.894-.613 3.774-.599 5.031.014 1.303-.163 3.112.599 4.208v.322l-1.02 2.004c-.408-3.014.708-6.149.219-9.111-.114-.696-.52-.915-1.031-1.317l.713-.266c.077.094.238.164.226.284-.003-.509.003-.556-.286-.97-2.543-.618-4.683 3.643-7.398 3.777-.058.003-.116 0-.174 0z"/><path d="M454 223.483v9.239c-.762-1.096-.585-2.905-.599-4.208-.014-1.257-.269-4.137.599-5.031z"/></g><defs><clipPath id="prefix__clip0_51_18"><path fill="#fff" transform="translate(58 58)" d="M0 0h396v396H0z"/></clipPath></defs></svg>